<svg width="78" height="69" viewBox="0 0 78 69" fill="none" xmlns="http://www.w3.org/2000/svg">
<path d="M45.32 31C44.253 29.9329 42.8934 29.2061 41.4133 28.9117C39.9332 28.6172 38.3991 28.7683 37.0048 29.3458C35.6106 29.9232 34.4189 30.9012 33.5805 32.156C32.7421 33.4107 32.2946 34.8859 32.2946 36.395C32.2946 37.9041 32.7421 39.3793 33.5805 40.6341C34.4189 41.8888 35.6106 42.8668 37.0048 43.4443C38.3991 44.0218 39.9332 44.1728 41.4133 43.8784C42.8934 43.5839 44.253 42.8572 45.32 41.79C46.7508 40.3591 47.5546 38.4185 47.5546 36.395C47.5546 34.3715 46.7508 32.4309 45.32 31V31Z" fill="url(#paint0_linear)"/>
<path d="M70.87 3.78001C70.87 4.52763 70.6483 5.25845 70.233 5.88007C69.8176 6.50169 69.2273 6.98618 68.5366 7.27228C67.8458 7.55838 67.0858 7.63323 66.3526 7.48738C65.6193 7.34153 64.9458 6.98152 64.4171 6.45288C63.8885 5.92423 63.5285 5.2507 63.3826 4.51745C63.2368 3.78421 63.3116 3.02417 63.5977 2.33347C63.8838 1.64277 64.3683 1.05241 64.9899 0.637058C65.6116 0.221706 66.3424 1.32991e-05 67.09 1.32991e-05C67.5868 -0.00130614 68.0789 0.0955658 68.5381 0.285061C68.9973 0.474557 69.4145 0.752939 69.7658 1.10421C70.1171 1.45548 70.3955 1.8727 70.585 2.33191C70.7745 2.79112 70.8713 3.28325 70.87 3.78001V3.78001Z" fill="url(#paint1_linear)"/>
<path d="M8 54.5C8 55.2476 7.77831 55.9785 7.36296 56.6001C6.94761 57.2217 6.35725 57.7062 5.66655 57.9923C4.97584 58.2784 4.21581 58.3532 3.48256 58.2074C2.74931 58.0615 2.07578 57.7015 1.54714 57.1729C1.0185 56.6442 0.658488 55.9707 0.512636 55.2375C0.366784 54.5042 0.44164 53.7442 0.727739 53.0535C1.01384 52.3628 1.49833 51.7724 2.11995 51.3571C2.74156 50.9417 3.47239 50.72 4.22 50.72C4.71677 50.7187 5.2089 50.8156 5.66811 51.0051C6.12731 51.1946 6.54454 51.4729 6.89581 51.8242C7.24708 52.1755 7.52546 52.5927 7.71496 53.0519C7.90445 53.5111 8.00132 54.0032 8 54.5V54.5Z" fill="url(#paint2_linear)"/>
<path d="M50.75 25.05C48.8823 23.262 46.5996 21.9659 44.1071 21.2782C41.6147 20.5905 38.9904 20.5327 36.47 21.11C36.0849 20.4624 35.4961 19.9606 34.7956 19.683C34.0952 19.4053 33.3225 19.3675 32.5982 19.5754C31.874 19.7833 31.239 20.2252 30.7925 20.8321C30.346 21.439 30.113 22.1767 30.13 22.93C30.1372 23.2971 30.2118 23.6598 30.35 24C29.7472 24.4686 29.176 24.9763 28.64 25.52C26.5047 27.7544 25.0797 30.5717 24.5452 33.6158C24.0108 36.6598 24.3908 39.794 25.6372 42.6222C26.8836 45.4504 28.9405 47.8455 31.5479 49.5049C34.1553 51.1643 37.1962 52.0134 40.2861 51.9449C43.3759 51.8764 46.3762 50.8934 48.9075 49.1202C51.4388 47.3469 53.3876 44.863 54.5075 41.9824C55.6274 39.1018 55.8682 35.9538 55.1994 32.9364C54.5306 29.919 52.9822 27.1676 50.75 25.03V25.05ZM50.46 46.41C47.7437 48.9726 44.1467 50.3937 40.4124 50.3793C36.678 50.3649 33.092 48.9163 30.3955 46.3328C27.6991 43.7493 26.0983 40.2285 25.9242 36.4983C25.7501 32.768 27.0159 29.1134 29.46 26.29C29.9056 25.8304 30.3799 25.3995 30.88 25C31.3167 25.5854 31.9303 26.0145 32.6299 26.224C33.3295 26.4335 34.078 26.4121 34.7646 26.1631C35.4511 25.9141 36.0392 25.4506 36.4418 24.8413C36.8444 24.232 37.0401 23.5092 37 22.78C36.9993 22.5576 36.9724 22.3361 36.92 22.12C39.9605 21.4805 43.1257 21.8303 45.9531 23.1184C48.7805 24.4065 51.1218 26.5652 52.6345 29.2791C54.1473 31.9929 54.7523 35.1195 54.361 38.2017C53.9698 41.2839 52.6028 44.1602 50.46 46.41Z" fill="url(#paint3_linear)"/>
<path d="M77.89 54.94C77.89 55.4843 77.7285 56.0164 77.4258 56.4689C77.1232 56.9213 76.6931 57.2738 76.1901 57.4816C75.687 57.6895 75.1335 57.7433 74.5998 57.6364C74.0661 57.5295 73.5761 57.2666 73.1919 56.881C72.8077 56.4954 72.5466 56.0045 72.4416 55.4703C72.3367 54.9362 72.3925 54.383 72.6022 53.8807C72.8119 53.3784 73.1659 52.9496 73.6195 52.6486C74.073 52.3476 74.6057 52.188 75.15 52.19C75.5107 52.19 75.8678 52.2612 76.2009 52.3995C76.534 52.5379 76.8365 52.7406 77.091 52.9961C77.3456 53.2516 77.5472 53.5548 77.6843 53.8884C77.8214 54.222 77.8913 54.5793 77.89 54.94V54.94Z" fill="url(#paint4_linear)"/>
<path d="M76.39 25.5C76.3913 24.6469 76.2244 23.8019 75.8989 23.0133C75.5733 22.2248 75.0955 21.5081 74.4927 20.9044C73.8899 20.3007 73.174 19.8218 72.3859 19.495C71.5979 19.1682 70.7531 19 69.9 19C69.3087 19.0027 68.7202 19.0834 68.15 19.24C65.5947 15.0409 62.119 11.477 57.9853 8.81719C53.8516 6.15737 49.1678 4.47109 44.2873 3.88558C39.4068 3.30008 34.4571 3.83064 29.8116 5.43723C25.166 7.04383 20.9461 9.68449 17.47 13.16C14.5426 16.0846 12.2036 19.5438 10.58 23.35C10.2504 23.2861 9.9157 23.2526 9.58001 23.25C8.29592 23.2427 7.05252 23.7001 6.07926 24.5377C5.10599 25.3754 4.46855 26.5368 4.28456 27.8077C4.10058 29.0785 4.38246 30.373 5.0782 31.4523C5.77393 32.5316 6.83657 33.3229 8.07 33.68C7.7296 38.2285 8.35193 42.7977 9.89639 47.0895C11.4408 51.3813 13.8727 55.2993 17.0334 58.5879C20.1941 61.8765 24.0126 64.4618 28.2398 66.1752C32.467 67.8886 37.0079 68.6916 41.5663 68.5318C46.1248 68.372 50.5983 67.253 54.6952 65.2478C58.792 63.2426 62.4201 60.3962 65.3427 56.8944C68.2654 53.3925 70.417 49.3139 71.6571 44.9245C72.8972 40.5351 73.1981 35.9335 72.54 31.42C73.6855 30.9113 74.6589 30.0813 75.3423 29.0305C76.0256 27.9798 76.3896 26.7534 76.39 25.5ZM61.79 57.5C57.4273 61.8649 51.8325 64.789 45.7582 65.8789C39.6839 66.9689 33.4215 66.1723 27.8134 63.5965C22.2054 61.0206 17.5207 56.789 14.3897 51.471C11.2587 46.1529 9.83142 40.0035 10.3 33.85C11.3587 33.7074 12.3498 33.2488 13.1438 32.5341C13.9378 31.8193 14.4977 30.8817 14.7505 29.8438C15.0032 28.8058 14.937 27.7158 14.5605 26.716C14.184 25.7163 13.5147 24.8534 12.64 24.24C14.8125 19.1495 18.3422 14.7539 22.8434 11.5333C27.3447 8.31276 32.6444 6.39113 38.1637 5.97832C43.683 5.5655 49.2097 6.67739 54.1399 9.19252C59.0702 11.7076 63.2144 15.5293 66.12 20.24C65.0053 21.0412 64.1734 22.1752 63.7438 23.4789C63.3142 24.7827 63.309 26.1891 63.7291 27.496C64.1492 28.8029 64.9728 29.9429 66.0816 30.7522C67.1904 31.5615 68.5273 31.9984 69.9 32H70.35C70.9929 36.6214 70.5543 41.329 69.069 45.7521C67.5836 50.1753 65.0919 54.1933 61.79 57.49V57.5Z" fill="url(#paint5_linear)"/>
<path d="M56.73 19.54C53.665 16.4716 49.8189 14.3002 45.6083 13.261C41.3976 12.2218 36.9829 12.3544 32.8422 13.6444C28.7015 14.9345 24.9927 17.3328 22.1174 20.5797C19.2421 23.8265 17.3099 27.7982 16.5301 32.0645C15.7502 36.3308 16.1525 40.7291 17.6933 44.7832C19.2341 48.8373 21.8547 52.3925 25.2712 55.064C28.6878 57.7354 32.7702 59.4211 37.0762 59.9387C41.3822 60.4562 45.7477 59.7858 49.7 58C50.4082 58.7533 51.3636 59.2269 52.3919 59.3345C53.4202 59.442 54.4529 59.1764 55.3017 58.5859C56.1504 57.9954 56.7586 57.1195 57.0153 56.1179C57.272 55.1164 57.1601 54.0559 56.7 53.13C61.1563 48.6786 63.6627 42.6399 63.6683 36.3412C63.6739 30.0425 61.1783 23.9994 56.73 19.54V19.54ZM24.28 52C21.1902 48.9113 19.0838 44.9772 18.2262 40.6934C17.3686 36.4095 17.7981 31.9677 19.4606 27.9276C21.1232 23.8875 23.9443 20.4298 27.5686 17.9903C31.193 15.5509 35.4582 14.2387 39.827 14.2193C44.1958 14.1998 48.4726 15.4739 52.1185 17.881C55.7644 20.2881 58.6163 23.7205 60.3148 27.7456C62.0132 31.7708 62.4823 36.2086 61.6628 40.4999C60.8434 44.7912 58.7721 48.7439 55.71 51.86C55.0829 51.3241 54.3152 50.9795 53.4981 50.8669C52.6809 50.7544 51.8486 50.8787 51.1 51.2251C50.3514 51.5715 49.7179 52.1254 49.2748 52.8211C48.8316 53.5169 48.5974 54.3252 48.6 55.15C48.6042 55.6446 48.6921 56.1348 48.86 56.6C44.7771 58.4025 40.2445 58.9277 35.8576 58.1067C31.4707 57.2857 27.4348 55.157 24.28 52V52Z" fill="url(#paint6_linear)"/>
<defs>
<linearGradient id="paint0_linear" x1="45.3166" y1="41.7471" x2="34.5332" y2="30.9638" gradientUnits="userSpaceOnUse">
<stop stop-color="#C244A9"/>
<stop offset="0.677083" stop-color="#497EC8"/>
<stop offset="1" stop-color="#497EC8"/>
</linearGradient>
<linearGradient id="paint1_linear" x1="70.87" y1="3.78001" x2="63.32" y2="3.78001" gradientUnits="userSpaceOnUse">
<stop stop-color="#E592FB"/>
<stop offset="0.51" stop-color="#7B6DFA"/>
<stop offset="1" stop-color="#5E31F9"/>
</linearGradient>
<linearGradient id="paint2_linear" x1="242.436" y1="462.741" x2="185.358" y2="462.741" gradientUnits="userSpaceOnUse">
<stop stop-color="#E592FB"/>
<stop offset="0.338542" stop-color="#D0BCEF"/>
<stop offset="0.651042" stop-color="#7B6DFA"/>
<stop offset="1" stop-color="#5E31F9"/>
</linearGradient>
<linearGradient id="paint3_linear" x1="24.01" y1="20.41" x2="52.35" y2="48.76" gradientUnits="userSpaceOnUse">
<stop stop-color="#3762FA"/>
<stop offset="0.114583" stop-color="#60A8FB"/>
<stop offset="0.505418" stop-color="#8B7CD7"/>
<stop offset="1" stop-color="#C244A9"/>
</linearGradient>
<linearGradient id="paint4_linear" x1="479.721" y1="354.36" x2="660.012" y2="354.36" gradientUnits="userSpaceOnUse">
<stop stop-color="#E592FB"/>
<stop offset="0.51" stop-color="#7B6DFA"/>
<stop offset="1" stop-color="#5E31F9"/>
</linearGradient>
<linearGradient id="paint5_linear" x1="7156.04" y1="96.4578" x2="3451.16" y2="4215.98" gradientUnits="userSpaceOnUse">
<stop stop-color="#497EC8"/>
<stop offset="0.71875" stop-color="#7B6DFA"/>
<stop offset="1" stop-color="#C244A9"/>
</linearGradient>
<linearGradient id="paint6_linear" x1="3688.45" y1="615.851" x2="2497.85" y2="2811.9" gradientUnits="userSpaceOnUse">
<stop stop-color="#497EC8"/>
<stop offset="0.15625" stop-color="#60A8FB"/>
<stop offset="1" stop-color="#C244A9"/>
</linearGradient>
</defs>
</svg>
