<svg id="Layer" enable-background="new 0 0 64 64" height="512" viewBox="0 0 64 64" width="512" xmlns="http://www.w3.org/2000/svg"><path d="m37.394 22.567c-.791-.771-2.058-.754-2.828.037l-6.396 6.568c-1.559 1.559-1.559 4.097-.018 5.638l6.415 6.585c.39.403.911.605 1.431.605.503 0 1.007-.188 1.396-.567.791-.771.808-2.037.037-2.828l-6.415-6.623 6.415-6.586c.77-.792.754-2.058-.037-2.829z"/><path d="m54.507 36.979c.096.014.19.021.285.021.979 0 1.835-.721 1.978-1.718.152-1.071.229-2.175.229-3.282s-.077-2.211-.229-3.282c-.157-1.094-1.182-1.852-2.263-1.698-1.094.156-1.854 1.168-1.698 2.262.127.884.19 1.799.19 2.718s-.063 1.833-.19 2.718c-.156 1.093.604 2.105 1.698 2.261z"/><path d="m32.999 7.999c-13.233 0-24 10.766-24 24s10.767 24 24 24c9.061 0 17.253-5.016 21.381-13.09.502-.983.112-2.188-.871-2.691-.983-.504-2.188-.113-2.691.871-3.439 6.729-10.268 10.91-17.818 10.91-11.028 0-20-8.972-20-20s8.972-20 20-20c7.551 0 14.379 4.181 17.818 10.91.503.983 1.708 1.375 2.691.871.983-.503 1.373-1.708.871-2.691-4.128-8.074-12.32-13.09-21.381-13.09z"/></svg>