<?xml version="1.0" encoding="iso-8859-1"?>
<!-- Generator: Adobe Illustrator 19.0.0, SVG Export Plug-In . SVG Version: 6.00 Build 0)  -->
<svg version="1.1" id="Capa_1" xmlns="http://www.w3.org/2000/svg" xmlns:xlink="http://www.w3.org/1999/xlink" x="0px" y="0px"
	 viewBox="0 0 512.001 512.001" style="enable-background:new 0 0 512.001 512.001;" xml:space="preserve">
<path style="fill:#BFBFBF;" d="M235.988,405.729c-6.169-10.279-10.886-21.528-13.871-33.464l-39.814-6.364v-47.496l39.814-6.364
	c0.994-3.976,2.198-7.867,3.566-11.68c-22.151,1.417-44.778-6.318-61.707-23.247c-31.242-31.242-31.242-81.895,0-113.137
	s81.895-31.242,113.137,0c16.929,16.929,24.664,39.556,23.247,61.707c3.813-1.368,7.704-2.572,11.68-3.566l6.364-39.814H365.9
	l6.364,39.814c11.936,2.985,23.185,7.701,33.464,13.871l25.361-18.371v-28.352l-52.454-8.385
	c-3.828-15.32-9.912-30.189-18.249-44.086l31.154-43.008l-44.237-44.237l-43.009,31.154c-13.897-8.337-28.766-14.421-44.086-18.249
	l-8.383-52.454h-62.56l-8.385,52.454c-15.32,3.828-30.189,9.912-44.086,18.249L93.786,49.551L49.549,93.787l31.154,43.008
	c-8.337,13.897-14.421,28.767-18.249,44.086L10,189.267v62.56l52.454,8.385c3.828,15.319,9.912,30.189,18.249,44.086l-31.154,43.008
	l44.237,44.237l43.008-31.154c13.897,8.337,28.767,14.421,44.086,18.249l8.385,52.454h28.352L235.988,405.729z"/>
<circle style="fill:#BFDEFF;" cx="342.15" cy="342.151" r="90.5"/>
<path d="M342.152,442.648c-55.413,0-100.495-45.082-100.495-100.495c0-55.413,45.082-100.495,100.495-100.495
	s100.495,45.082,100.495,100.495C442.647,397.567,397.565,442.648,342.152,442.648z M342.152,261.659
	c-44.385,0-80.495,36.11-80.495,80.495c0,44.385,36.11,80.495,80.495,80.495s80.495-36.11,80.495-80.495
	S386.537,261.659,342.152,261.659z"/>
<path style="fill:#076893;" d="M502,365.901v-47.496l-39.814-6.364c-2.985-11.936-7.702-23.185-13.871-33.464l23.658-32.661
	l-33.585-33.585l-32.661,23.658c-10.279-6.169-21.528-10.886-33.464-13.871l-6.364-39.814h-47.496l-6.364,39.814
	c-11.936,2.985-23.185,7.701-33.464,13.871l-32.661-23.658l-33.585,33.585l23.658,32.661c-6.169,10.279-10.886,21.528-13.871,33.464
	l-39.814,6.364v47.496l39.814,6.364c2.985,11.936,7.702,23.185,13.871,33.464l-23.658,32.661l33.585,33.585l32.661-23.658
	c10.279,6.169,21.528,10.886,33.464,13.871l6.365,39.813H365.9l6.364-39.814c11.936-2.985,23.185-7.701,33.464-13.871l32.661,23.658
	l33.585-33.585l-23.658-32.661c6.169-10.279,10.886-21.528,13.871-33.464L502,365.901z M342.152,432.648
	c-49.979,0-90.495-40.516-90.495-90.495s40.516-90.495,90.495-90.495s90.495,40.516,90.495,90.495S392.131,432.648,342.152,432.648z
	"/>
<circle style="fill:#4184B2;" cx="342.15" cy="342.151" r="41.98"/>
<path d="M342.152,394.133c-28.662,0-51.98-23.318-51.98-51.98s23.318-51.98,51.98-51.98c28.662,0,51.98,23.318,51.98,51.98
	C394.132,370.815,370.814,394.133,342.152,394.133z M342.152,310.174c-17.634,0-31.98,14.346-31.98,31.98
	c0,17.634,14.346,31.98,31.98,31.98s31.98-14.346,31.98-31.98C374.132,324.52,359.786,310.174,342.152,310.174z"/>
<path d="M503.579,308.531l-33.473-5.351c-2.519-8.282-5.84-16.293-9.923-23.939l19.89-27.458c2.882-3.979,2.447-9.463-1.027-12.938
	l-33.585-33.585c-1.251-1.251-2.763-2.1-4.371-2.551v-13.443c0-4.913-3.57-9.099-8.421-9.874l-46.07-7.364
	c-3.505-12.034-8.303-23.625-14.322-34.6l27.363-37.774c2.882-3.979,2.447-9.463-1.027-12.938l-44.237-44.236
	c-3.474-3.474-8.959-3.909-12.937-1.027l-37.774,27.363c-10.974-6.019-22.566-10.817-34.6-14.322l-7.364-46.07
	c-0.777-4.852-4.963-8.422-9.876-8.422h-62.56c-4.913,0-9.099,3.57-9.874,8.421l-7.364,46.07
	c-12.035,3.505-23.626,8.303-34.601,14.321L99.652,41.452c-3.978-2.882-9.462-2.447-12.937,1.027L42.478,86.716
	c-3.474,3.475-3.91,8.959-1.027,12.938l27.362,37.774c-6.018,10.974-10.816,22.566-14.321,34.6l-46.07,7.364
	C3.57,180.167,0,184.353,0,189.267v62.56c0,4.914,3.57,9.099,8.421,9.874l46.07,7.364c3.505,12.035,8.303,23.626,14.321,34.601
	L41.45,341.44c-2.882,3.979-2.447,9.463,1.027,12.937l44.236,44.237c3.475,3.474,8.959,3.909,12.938,1.027l37.774-27.363
	c10.975,6.019,22.566,10.817,34.601,14.322l7.364,46.069c0.775,4.852,4.961,8.421,9.874,8.421h13.443
	c0.45,1.608,1.3,3.12,2.551,4.371l33.585,33.585c3.475,3.474,8.958,3.909,12.938,1.027l27.459-19.89
	c7.645,4.083,15.657,7.404,23.939,9.923l5.351,33.473c0.775,4.852,4.961,8.421,9.875,8.421H365.9c4.914,0,9.099-3.57,9.875-8.421
	l5.351-33.473c8.282-2.519,16.294-5.84,23.939-9.923l27.459,19.89c3.98,2.883,9.463,2.447,12.938-1.027l33.585-33.585
	c3.474-3.475,3.91-8.958,1.027-12.938l-19.89-27.458c4.083-7.646,7.404-15.657,9.923-23.94l33.473-5.351
	c4.852-0.775,8.421-4.961,8.421-9.875v-47.496C512,313.492,508.43,309.307,503.579,308.531z M421.09,197.795v14.72l-16.026,11.608
	c-5.734-3.062-11.675-5.696-17.78-7.884c-2.035-0.73-4.089-1.409-6.159-2.039l-3.739-23.391L421.09,197.795z M141.939,351.813
	c-3.436-2.06-7.768-1.873-11.011,0.477l-36.102,26.152L62.65,346.266l26.151-36.102c2.35-3.244,2.537-7.576,0.477-11.01
	c-7.717-12.864-13.478-26.782-17.122-41.367c-0.971-3.886-4.168-6.818-8.123-7.45L20,243.298v-45.503l44.033-7.039
	c3.956-0.632,7.152-3.564,8.123-7.45c3.645-14.585,9.405-28.502,17.122-41.366c2.061-3.435,1.873-7.767-0.477-11.011L62.65,94.828
	l32.176-32.176l36.102,26.151c3.243,2.349,7.575,2.537,11.01,0.477c12.864-7.717,26.782-13.478,41.367-17.122
	c3.886-0.971,6.818-4.168,7.45-8.124l7.038-44.032h45.503l7.039,44.033c0.632,3.956,3.564,7.152,7.45,8.123
	c14.585,3.645,28.502,9.405,41.366,17.122c3.435,2.061,7.768,1.873,11.011-0.476l36.102-26.151l32.176,32.175l-26.151,36.102
	c-2.35,3.244-2.537,7.576-0.477,11.011c5.753,9.59,10.418,19.765,13.931,30.365h-13.749c-6.987-19.123-17.881-36.181-32.454-50.754
	c-26.443-26.443-61.6-41.005-98.995-41.005s-72.552,14.563-98.995,41.005c-21.756,21.756-35.477,49.324-39.68,79.725
	c-4.065,29.404,1.438,59.902,15.495,85.876c1.81,3.344,5.25,5.242,8.803,5.242c1.607,0,3.238-0.389,4.751-1.207
	c4.857-2.628,6.664-8.697,4.035-13.554c-25.059-46.302-16.531-104.669,20.738-141.939c46.787-46.789,122.917-46.789,169.705,0
	c10.718,10.718,19.109,22.999,25.06,36.612h-12.053c-4.914,0-9.099,3.57-9.875,8.421l-2.083,13.029
	c-4.286-13.762-11.857-26.444-22.262-36.849c-35.092-35.091-92.188-35.091-127.28,0.001c-35.09,35.091-35.09,92.188,0,127.279
	c10.405,10.405,23.086,17.976,36.849,22.262l-13.028,2.082c-4.852,0.775-8.421,4.961-8.421,9.875v47.338
	C161.703,362.232,151.528,357.567,141.939,351.813z M204.231,251.783l19.89,27.459c-1.957,3.665-3.734,7.416-5.337,11.239
	c-17.882-0.454-35.006-7.705-47.737-20.436c-27.293-27.294-27.293-71.702,0-98.995c27.293-27.294,71.702-27.293,98.995,0
	c12.732,12.731,19.985,29.854,20.437,47.736c-3.823,1.603-7.574,3.38-11.24,5.338l-27.459-19.89
	c-3.978-2.882-9.462-2.447-12.938,1.027l-33.585,33.585C201.784,242.32,201.349,247.804,204.231,251.783z M190.808,377.388
	l23.391,3.739c2.519,8.282,5.84,16.295,9.923,23.939l-11.608,16.025h-14.72L190.808,377.388z M492,357.374l-31.392,5.018
	c-3.955,0.632-7.151,3.563-8.122,7.448c-2.706,10.818-6.993,21.162-12.744,30.745c-2.061,3.435-1.874,7.768,0.476,11.012
	l18.655,25.754l-21.524,21.524l-25.754-18.655c-3.245-2.35-7.578-2.538-11.012-0.476c-9.583,5.75-19.927,10.038-30.745,12.744
	c-3.885,0.972-6.816,4.168-7.448,8.122l-5.018,31.392h-30.439l-5.018-31.392c-0.632-3.955-3.563-7.151-7.448-8.122
	c-10.819-2.706-21.163-6.994-30.744-12.744c-3.436-2.062-7.768-1.875-11.012,0.476l-25.754,18.655l-21.524-21.524l18.655-25.754
	c2.35-3.244,2.537-7.577,0.476-11.012c-5.75-9.581-10.038-19.925-12.744-30.745c-0.972-3.885-4.168-6.816-8.123-7.448l-31.392-5.018
	v-30.44l31.392-5.018c3.955-0.632,7.15-3.563,8.123-7.447c0.004-0.016,0.008-0.031,0.012-0.047c0.274-1.092,0.574-2.176,0.879-3.259
	c0.154-0.539,0.31-1.078,0.473-1.62c0.118-0.397,0.245-0.79,0.367-1.185c0.48-1.533,0.991-3.074,1.545-4.618
	c0.005-0.013,0.007-0.027,0.012-0.04c2.491-6.936,5.645-13.626,9.456-19.977c2.061-3.435,1.874-7.768-0.476-11.012l-18.655-25.754
	l21.524-21.524l25.754,18.655c3.245,2.35,7.578,2.536,11.012,0.476c6.346-3.809,13.033-6.961,19.964-9.451
	c0.017-0.006,0.035-0.009,0.052-0.015c1.563-0.561,3.121-1.077,4.671-1.562c0.37-0.115,0.739-0.233,1.11-0.344
	c0.555-0.167,1.107-0.327,1.658-0.484c1.077-0.304,2.156-0.602,3.243-0.875c0.016-0.004,0.032-0.009,0.048-0.013
	c3.885-0.972,6.815-4.168,7.447-8.123l5.018-31.392h30.439l5.018,31.392c0.237,1.483,0.797,2.859,1.61,4.052
	c1.354,1.987,3.41,3.464,5.838,4.071c8.113,2.029,15.96,4.948,23.419,8.707c2.486,1.253,4.93,2.6,7.326,4.037
	c3.436,2.062,7.769,1.874,11.012-0.476l25.361-18.371c0.001-0.001,0.002-0.002,0.003-0.003l0.389-0.282l21.524,21.524
	l-18.655,25.754c-2.35,3.244-2.537,7.577-0.476,11.012c5.75,9.583,10.038,19.926,12.744,30.745c0.972,3.885,4.168,6.816,8.122,7.448
	L492,326.934V357.374z"/>
<path d="M342.152,241.659c-55.413,0-100.495,45.082-100.495,100.495c0,55.413,45.082,100.495,100.495,100.495
	s100.495-45.082,100.495-100.495C442.647,286.741,397.565,241.659,342.152,241.659z M342.152,422.648
	c-44.385,0-80.495-36.11-80.495-80.495s36.11-80.495,80.495-80.495s80.495,36.11,80.495,80.495
	C422.647,386.539,386.537,422.648,342.152,422.648z"/>
<path d="M127.604,321.435c-2.582,0-5.162-0.992-7.119-2.969c-3.871-3.911-3.881-10.243,0.009-14.134
	c1.876-1.876,4.42-2.929,7.071-2.929c0.026,0,0.052,0,0.078,0c2.679,0.021,5.237,1.116,7.102,3.04
	c3.83,3.951,3.782,10.29-0.149,14.14C132.654,320.487,130.128,321.435,127.604,321.435z M127.594,311.432l7.043,7.043
	L127.594,311.432z"/>
<g>
</g>
<g>
</g>
<g>
</g>
<g>
</g>
<g>
</g>
<g>
</g>
<g>
</g>
<g>
</g>
<g>
</g>
<g>
</g>
<g>
</g>
<g>
</g>
<g>
</g>
<g>
</g>
<g>
</g>
</svg>
