<svg id="Capa_1" enable-background="new 0 0 512 512" height="512" viewBox="0 0 512 512" width="512" xmlns="http://www.w3.org/2000/svg"><g><g><g><g><path d="m487.063 419.23c-1.797-3.486-4.412-6.256-7.483-8.207-4.363-2.772-7.442-7.202-8.501-12.261-2.123-10.146-9.219-19.098-19.874-23.053-14.545-5.399-31.131.865-38.484 14.526-8.697 16.157-1.827 36.025 14.596 43.512 5.418 2.47 41.711 19.779 52.15 13.241 9.273-5.807 12.611-18.031 7.596-27.758z" fill="#8fddc1"/></g><g><path d="m24.937 419.231c1.797-3.486 4.412-6.256 7.483-8.207 4.363-2.772 7.442-7.202 8.501-12.261 2.123-10.145 9.219-19.098 19.874-23.053 14.545-5.399 31.131.865 38.484 14.526 8.697 16.157 1.827 36.025-14.596 43.512-6.601 3.01-41.711 19.779-52.15 13.241-9.273-5.808-12.611-18.032-7.596-27.758z" fill="#8fddc1"/></g></g><g><g><g><g><path d="m440.824 448.519h-369.648v-292.853l184.824-92.609 184.824 92.609z" fill="#f4fbff"/><path d="m256 63.057-59.136 29.631 168.553 84.456c7.265 3.64 11.853 11.07 11.853 19.196v252.179h63.555v-292.853z" fill="#e4f6ff"/><path d="m30 165.376v17.415c0 8.212 8.646 13.55 15.988 9.872l205.066-102.751c3.113-1.56 6.779-1.56 9.893 0l205.066 102.751c7.342 3.679 15.988-1.659 15.988-9.872v-17.415c0-4.179-2.359-8-6.095-9.872l-214.96-107.707c-3.113-1.56-6.779-1.56-9.893 0l-214.958 107.708c-3.736 1.872-6.095 5.693-6.095 9.871z" fill="#e28086"/><g><path d="m475.905 155.505-57.232-28.677v42.115l47.339 23.72c7.342 3.679 15.988-1.659 15.988-9.871v-17.415c0-4.179-2.359-8-6.095-9.872z" fill="#dd636e"/></g></g></g></g><g><path d="m487.573 465.363h-463.146c-9.349 0-16.927-7.579-16.927-16.927 0-9.349 7.579-16.927 16.927-16.927h463.146c9.349 0 16.927 7.579 16.927 16.927 0 9.348-7.579 16.927-16.927 16.927z" fill="#407093"/></g><path d="m487.573 431.508h-63.676c9.349 0 16.927 7.578 16.927 16.927v16.927h46.748c9.349 0 16.927-7.578 16.927-16.927.001-9.348-7.578-16.927-16.926-16.927z" fill="#365e7d"/><g><path d="m115.96 263.511h98.237v167.998h-98.237z" fill="#eabc6b"/><path d="m387.466 336.549h-118.712c-4.735 0-8.573-3.838-8.573-8.573v-55.891c0-4.735 3.838-8.573 8.573-8.573h118.713c4.735 0 8.573 3.838 8.573 8.573v55.891c0 4.734-3.839 8.573-8.574 8.573z" fill="#cbe2ff"/><path d="m387.466 263.511h-59.356v73.038h59.356c4.735 0 8.573-3.839 8.573-8.573v-55.891c.001-4.736-3.838-8.574-8.573-8.574z" fill="#bed8fb"/></g></g></g><g><path d="m187.5 354.01v-13c0-4.143-3.357-7.5-7.5-7.5s-7.5 3.357-7.5 7.5v13c0 4.143 3.357 7.5 7.5 7.5s7.5-3.358 7.5-7.5z"/><path d="m496.707 425.787c-.368-3.482-1.363-6.862-2.978-9.994-2.341-4.539-5.843-8.377-10.128-11.101-2.652-1.685-4.541-4.406-5.182-7.466-2.758-13.181-11.956-23.853-24.605-28.548-1.792-.665-3.627-1.184-5.49-1.573v-112.083c0-4.143-3.357-7.5-7.5-7.5s-7.5 3.357-7.5 7.5v168.986h-211.627v-152.997h1.5c4.143 0 7.5-3.357 7.5-7.5s-3.357-7.5-7.5-7.5h-116.237c-4.143 0-7.5 3.357-7.5 7.5s3.357 7.5 7.5 7.5h1.5v99.734c0 4.143 3.357 7.5 7.5 7.5s7.5-3.357 7.5-7.5v-99.734h83.237v152.998h-83.237v-18.455c0-4.143-3.357-7.5-7.5-7.5s-7.5 3.357-7.5 7.5v18.455h-29.784v-239.337l175.738-88.055c.994-.498 2.178-.498 3.172 0h.001l175.737 88.055v35.287c0 4.143 3.357 7.5 7.5 7.5s7.5-3.357 7.5-7.5v-27.771l14.329 7.18c12.335 6.181 26.847-2.802 26.847-16.577v-17.415c0-7.062-3.922-13.413-10.236-16.576l-214.958-107.709c-5.201-2.604-11.41-2.604-16.611.001l-214.959 107.708c-6.314 3.163-10.236 9.515-10.236 16.576v17.415c0 13.804 14.531 22.75 26.847 16.577l14.329-7.18v174.917c-1.864.389-3.699.908-5.491 1.573-12.648 4.695-21.847 15.367-24.604 28.548-.641 3.06-2.529 5.781-5.183 7.467-4.283 2.723-7.785 6.561-10.127 11.101-1.615 3.132-2.61 6.511-2.978 9.993-8.956 3.625-15.293 12.408-15.293 22.648 0 13.469 10.958 24.427 24.428 24.427h463.145c13.47 0 24.428-10.958 24.428-24.427-.001-10.24-6.338-19.023-15.294-22.648zm-48.383-43.133c.089.032.182.054.271.087 7.787 2.89 13.447 9.454 15.144 17.558 1.464 6.997 5.772 13.214 11.819 17.055 2.043 1.298 3.717 3.136 4.84 5.313.225.436.415.886.589 1.342h-32.662v-41.355zm-405.696-196.696c-2.368 1.183-5.128-.528-5.128-3.167v-17.415c0-1.349.749-2.562 1.955-3.166l214.958-107.707c.994-.498 2.18-.497 3.174-.001l214.958 107.708c1.206.604 1.955 1.817 1.955 3.166v17.415c0 2.643-2.765 4.349-5.128 3.167l-205.066-102.751h.002c-5.203-2.607-11.414-2.608-16.613 0zm-11.026 236.711c1.125-2.18 2.799-4.018 4.84-5.315 6.049-3.842 10.356-10.059 11.82-17.055 1.696-8.104 7.356-14.668 15.143-17.558.089-.033.182-.056.271-.088v41.355h-32.662c.173-.455.363-.904.588-1.339zm455.97 35.193h-463.144c-5.198 0-9.428-4.229-9.428-9.427s4.229-9.427 9.428-9.427h463.145c5.198 0 9.428 4.229 9.428 9.427s-4.23 9.427-9.429 9.427z"/><path d="m268.754 256.011c-8.863 0-16.073 7.211-16.073 16.074v55.891c0 8.863 7.21 16.073 16.073 16.073h118.713c8.863 0 16.073-7.21 16.073-16.073v-55.891c0-8.863-7.21-16.074-16.073-16.074zm119.786 16.074v55.891c0 .592-.481 1.073-1.073 1.073h-118.713c-.592 0-1.073-.481-1.073-1.073v-55.891c0-.593.481-1.074 1.073-1.074h118.713c.592 0 1.073.481 1.073 1.074z"/></g></g></svg>