<svg id="Capa_1" enable-background="new 0 0 512 512" height="512" viewBox="0 0 512 512" width="512" xmlns="http://www.w3.org/2000/svg"><path d="m439.841 450.072-44.865-77.708c-18.04 14.453-38.394 26.208-59.955 34.615l44.865 77.708c9.559 16.556 30.729 22.229 47.285 12.67 16.556-9.559 22.228-30.729 12.67-47.285z" fill="#dcaee7"/><g><g><path d="m413.282 102.668c-51.171-88.641-164.504-119.012-253.135-67.835-88.632 51.177-118.999 164.523-67.828 253.164 45.256 78.394 139.128 111.197 221.538 82.337 109.584-38.378 157.554-166.972 99.425-267.666zm-283.659 163.789c-39.277-68.037-15.968-155.035 52.061-194.316s155.018-15.97 194.295 52.067 15.968 155.035-52.061 194.316c-68.03 39.281-155.018 15.97-194.295-52.067z" fill="#dcaee7"/><ellipse cx="252.801" cy="195.332" fill="#d2edff" rx="142.233" ry="142.249"/></g><path d="m394.976 372.377-21.164-36.662c-17.542 15.091-37.855 26.879-59.955 34.619 2.1 3.637 19.225 33.303 21.164 36.662 21.536-8.399 41.894-20.149 59.955-34.619z" fill="#fff398"/><g><path d="m328.918 327.143c78.32-45.222 100.379-148.371 46.687-221.851-3.26-4.458-9.516-5.431-13.974-2.172-4.459 3.259-5.432 9.517-2.172 13.976 46.471 63.584 27.765 153.286-40.54 192.725-63.298 36.553-144.095 14.89-180.634-48.406-36.457-63.151-14.744-144.193 48.401-180.655 36.484-21.066 79.64-23.598 118.403-6.949 5.076 2.18 10.955-.168 13.135-5.243 2.179-5.075-.167-10.956-5.242-13.136-42.798-18.383-93.215-16.869-136.295 8.006-72.696 41.976-97.692 135.275-55.721 207.978 42.219 73.139 135.378 97.634 207.952 55.727z"/><path d="m300.768 185.289h-95.935c-5.523 0-10 4.478-10 10.001s4.477 10.001 10 10.001h95.935c5.523 0 10-4.478 10-10.001s-4.477-10.001-10-10.001z"/><path d="m335.033 91.604c4.545 4.545 12.031 3.596 15.38-1.521 2.757-4.213 1.982-9.409-1.24-12.631-3.915-3.896-10.223-3.907-14.15 0-4.003 4.004-3.773 10.444.01 14.152z"/><path d="m448.501 445.05-61.965-107.339c64.762-60.672 81.702-159.892 35.407-240.086-53.847-93.274-173.531-125.346-266.796-71.495-93.265 53.853-125.334 173.551-71.488 266.825 46.439 80.443 140.911 115.012 225.594 89.364l61.973 107.351c12.301 21.308 39.53 28.697 60.945 16.332 21.304-12.301 28.63-39.644 16.33-60.952zm-120.133-69.624c15.522-6.535 30.04-15.069 42.636-24.615l10.933 18.939c-12.841 9.476-27.108 17.841-42.635 24.617zm-227.389-92.472c-48.332-83.723-19.547-191.163 64.168-239.501 84.07-48.542 191.365-19.164 239.476 64.174 42.837 74.203 25.347 166.531-37.268 220.416-.021.017-.043.031-.064.049-83.1 71.484-211.155 50.405-266.312-45.138zm321.191 205.726c-11.782 6.802-26.821 2.774-33.625-9.011l-39.192-67.889c14.513-6.497 28.657-14.504 42.635-24.618l39.191 67.888c6.787 11.758 2.746 26.843-9.009 33.63z"/></g></g></svg>